<?xml version="1.0" encoding="UTF-8"?>
<svg width="100" height="100" viewBox="0 0 100 100" fill="none" xmlns="http://www.w3.org/2000/svg">
  <rect width="100" height="100" rx="6" fill="#F5F5F5"/>
  
  <!-- 电路板背景 -->
  <rect x="10" y="10" width="80" height="80" rx="2" fill="#E0E0E0"/>
  <rect x="15" y="15" width="70" height="70" rx="1" fill="#F8F8F8"/>
  
  <!-- 电路元件 -->
  <!-- 电阻器 -->
  <line x1="20" y1="30" x2="30" y2="30" stroke="#5E35B1" stroke-width="2"/>
  <path d="M30 30L32 26L36 34L40 26L44 34L48 26L52 34L56 26L58 30" stroke="#5E35B1" stroke-width="2" fill="none"/>
  <line x1="58" y1="30" x2="68" y2="30" stroke="#5E35B1" stroke-width="2"/>
  
  <!-- 电容器 -->
  <line x1="20" y1="45" x2="38" y2="45" stroke="#5E35B1" stroke-width="2"/>
  <line x1="40" y1="37" x2="40" y2="53" stroke="#5E35B1" stroke-width="2"/>
  <line x1="45" y1="37" x2="45" y2="53" stroke="#5E35B1" stroke-width="2"/>
  <line x1="45" y1="45" x2="68" y2="45" stroke="#5E35B1" stroke-width="2"/>
  
  <!-- 电源 -->
  <line x1="30" y1="60" x2="42" y2="60" stroke="#5E35B1" stroke-width="2"/>
  <line x1="50" y1="60" x2="62" y2="60" stroke="#5E35B1" stroke-width="2"/>
  <line x1="42" y1="55" x2="42" y2="65" stroke="#5E35B1" stroke-width="2"/>
  <line x1="46" y1="60" x2="46" y2="60" stroke="#5E35B1" stroke-width="2"/>
  <circle cx="46" cy="60" r="4" stroke="#5E35B1" stroke-width="2" fill="none"/>
  
  <!-- 连接线 -->
  <line x1="20" y1="30" x2="20" y2="75" stroke="#5E35B1" stroke-width="2"/>
  <line x1="68" y1="30" x2="68" y2="75" stroke="#5E35B1" stroke-width="2"/>
  <line x1="20" y1="75" x2="68" y2="75" stroke="#5E35B1" stroke-width="2"/>
  
  <!-- 连接点 -->
  <circle cx="20" cy="30" r="2" fill="#5E35B1"/>
  <circle cx="20" cy="45" r="2" fill="#5E35B1"/>
  <circle cx="68" cy="30" r="2" fill="#5E35B1"/>
  <circle cx="68" cy="45" r="2" fill="#5E35B1"/>
  <circle cx="20" cy="75" r="2" fill="#5E35B1"/>
  <circle cx="68" cy="75" r="2" fill="#5E35B1"/>
</svg> 