<?xml version="1.0" standalone="no"?><!DOCTYPE svg PUBLIC "-//W3C//DTD SVG 1.1//EN" "http://www.w3.org/Graphics/SVG/1.1/DTD/svg11.dtd"><svg t="1754378360338" class="icon" viewBox="0 0 1248 1024" version="1.1" xmlns="http://www.w3.org/2000/svg" p-id="13528" xmlns:xlink="http://www.w3.org/1999/xlink" width="243.75" height="200"><path d="M1198.944 417.76c0 8.992 0 17.984 0 26.976-3.744 12.448-6.912 25.12-11.296 37.312-42.368 117.856-84.992 235.648-127.584 353.408-25.184 69.6-92.352 119.232-164.448 119.36-227.968 0.416-456 0.576-683.968-0.16-55.744-0.16-95.776-29.056-118.88-81.216-5.792-12.992-7.616-27.84-11.264-41.824 0-214.464 0-428.896 0-643.36 0.704-2.112 1.728-4.16 2.112-6.304 10.688-63.744 59.104-110.336 121.184-111.872 75.232-1.792 150.528-1.696 225.76-0.032 60.416 1.312 108.832 45.888 120.768 107.04 1.6 8 2.144 16.192 3.296 25.184 4.896 0 9.216 0 13.536 0 108.32 0 216.704-0.32 325.088 0.128 56.512 0.224 98.464 26.208 122.112 79.648 7.072 15.936 9.344 34.176 14.272 53.088 1.984 0 5.888-0.096 9.76 0 24.704 0.512 49.504-0.256 74.048 2.016 33.984 3.168 60.544 19.872 75.776 52.416 4.128 8.928 6.56 18.752 9.728 28.16zM751.552 423.392c-109.856 0-219.68 0-329.536 0.032-5.792 0-11.712-0.16-17.408 0.704-35.648 5.472-63.456 23.68-76.416 58.784-43.84 118.944-86.432 238.368-129.408 357.632-8.448 23.488-6.464 26.56 18.112 26.592 224.736 0.096 449.536 0.192 674.304-0.032 41.568-0.032 75.712-25.6 90.176-65.472 41.792-115.712 83.616-231.424 125.44-347.136 10.688-29.6 9.728-31.072-21.376-31.072-111.296-0.032-222.592-0.032-333.888-0.032z" fill="#444444" p-id="13529"></path></svg>