<?xml version="1.0" standalone="no"?><!DOCTYPE svg PUBLIC "-//W3C//DTD SVG 1.1//EN" "http://www.w3.org/Graphics/SVG/1.1/DTD/svg11.dtd"><svg t="1755246232254" class="icon" viewBox="0 0 1066 1024" version="1.1" xmlns="http://www.w3.org/2000/svg" p-id="3840" xmlns:xlink="http://www.w3.org/1999/xlink" width="208.203125" height="200"><path d="M478.916135 0h85.450652V85.450652h-85.450652V0zM189.800275 119.707703L250.251385 180.158813 189.842936 240.609924 129.349165 180.158813 189.842936 119.707703z m663.682373 0l60.45111 60.45111-60.45111 60.451111-60.493772-60.451111 60.493772-60.408448zM180.286797 512.063992a341.290672 341.290672 0 1 1 682.581344 0 341.290672 341.290672 0 0 1-682.581344 0z m-170.645336-42.789318h85.450652V554.725326H9.641461v-85.493313z m938.549348 0h85.493314V554.725326h-85.493314v-85.493313zM189.800275 783.390076l60.45111 60.408449-60.45111 60.493772-60.408449-60.493772 60.408449-60.408449z m663.682373 0l60.408449 60.408449-60.408449 60.493772-60.493772-60.493772 60.493772-60.408449z m-374.566513 155.159272h85.450652V1024h-85.450652v-85.450652z" fill="#000000" p-id="3841"></path></svg>