<?xml version="1.0" standalone="no"?><!DOCTYPE svg PUBLIC "-//W3C//DTD SVG 1.1//EN" "http://www.w3.org/Graphics/SVG/1.1/DTD/svg11.dtd"><svg t="1755246186719" class="icon" viewBox="0 0 1066 1024" version="1.1" xmlns="http://www.w3.org/2000/svg" p-id="2573" xmlns:xlink="http://www.w3.org/1999/xlink" width="208.203125" height="200"><path d="M685.653333 142.677333l-60.928 33.322667 60.928 33.322667 33.322667 60.928 33.322667-60.928 60.928-33.322667-60.928-33.322667-33.28-60.928-33.365334 60.928zM94.976 512c0-235.648 191.018667-426.666667 426.666667-426.666667h73.984l-37.034667 64c-24.704 42.666667-36.949333 93.397333-36.949333 149.333334a298.666667 298.666667 0 0 0 356.181333 293.12l71.765333-13.952-23.168 69.376C869.973333 816.512 710.101333 938.666667 521.642667 938.666667c-235.648 0-426.666667-191.018667-426.666667-426.666667z m789.333333-238.250667l38.997334 71.253334L994.56 384l-71.253333 38.997333-38.997334 71.253334-38.954666-71.253334L774.101333 384l71.253334-38.997333 38.954666-71.253334z" fill="#000000" p-id="2574"></path></svg>