<?xml version="1.0" standalone="no"?><!DOCTYPE svg PUBLIC "-//W3C//DTD SVG 1.1//EN" "http://www.w3.org/Graphics/SVG/1.1/DTD/svg11.dtd"><svg t="1754376684324" class="icon" viewBox="0 0 7401 1024" version="1.1" xmlns="http://www.w3.org/2000/svg" p-id="8248" xmlns:xlink="http://www.w3.org/1999/xlink" width="1445.5078125" height="200"><path d="M6019.931 1208.081c0 89.631-84.682 161.945-189.123 161.945h-4243.709c-104.633 0-189.134-72.314-189.134-161.945v-1392.071c0-89.452 84.503-162.046 189.134-162.046h4243.709c104.442 0 189.123 72.605 189.123 162.046v1392.071z" fill="#FFC91A" p-id="8249"></path><path d="M4262.034 95.105h-77.966c-0.005 0-0.018 0-0.023 0-42.959 0-77.788 34.826-77.788 77.788 0 0.035 0 0.071 0 0.108v779.618c0 42.691 34.751 77.811 77.811 77.811h77.966c43.053 0 78.336-34.916 78.336-77.811v-779.623c-0.167-42.794-35.286-77.889-78.336-77.889zM3794.608 95.105h-155.971v545.585c2.382 124.201-155.69 155.971-155.69 155.971s-155.971-31.782-155.971-155.971v-545.585h-156.033c-43.012 0.017-77.874 34.878-77.889 77.886v545.689c2.382 8.122 274.444 314.217 311.66 311.93h155.945c44.546 0 311.853-313.323 311.853-311.93v-545.686c0-42.794-34.955-77.889-77.903-77.889zM5080.475 95.105h-233.937c-26.654 0-52.58 5.118-77.095 12.253-11.638-6.958-25.055-12.253-39.867-12.253h-77.99c-0.002 0-0.005 0-0.016 0-42.959 0-77.788 34.826-77.788 77.788 0 0.035 0 0.071 0 0.108v779.618c0 42.691 34.761 77.811 77.801 77.811h77.99c43.037 0 78.146-34.916 78.146-77.811v-237.826c12.892 1.778 25.58 3.873 38.816 3.873h233.937c150.65 0 272.933-122.259 272.933-272.933v-77.966c0-150.483-122.283-272.663-272.933-272.663zM5119.817 485.091c0 42.858-35.093 77.981-78.326 77.981h-233.772v-311.915h233.772c43.037 0 78.326 34.761 78.326 78.156v155.778zM2707.914 406.753h82.747c28.751 0 53.806-13.582 68.619-34.585 0-58.577-11.55-96.332-29.099-121.017h1.857c-43.934-91.919-136.928-155.869-245.51-155.869-13.403 0-26.179 2.56-38.893 4.491v-4.491h-233.949v3.787c-131.889 18.969-233.746 131.619-233.746 268.865 0 147.492 117.038 267.127 263.379 272.052 0 0-0.347 0.549-0.525 0.704h204.841c43.024 0.027 77.889 34.913 77.889 77.941 0 0.019 0 0.035 0 0.053v78.154c0 42.87-34.851 77.99-77.889 77.99h-233.949v-77.99c0-43.037-36.771-78.156-82.57-78.156h-82.738c-28.507 0-53.819 13.761-68.643 34.775-0.167 59.255 12.086 97.022 30.697 121.207h-3.62c43.934 91.729 137.183 155.778 245.575 155.778 13.325 0 26.116-2.646 38.996-4.4v4.4h233.772v-3.696c132.043-19.236 233.746-131.799 233.746-268.878 0-146.954-116.362-265.695-261.715-272.036 0.167 0 0.167-0.704 0.347-0.704h-206.336c-0.002 0-0.005 0-0.016 0-43.108 0-78.055-34.947-78.055-78.055 0-0.098 0-0.198 0-0.295v-77.618c0-0.029 0-0.067 0-0.102 0-43.004 34.861-77.863 77.863-77.863 0.071 0 0.144 0 0.217 0h233.759v77.966c0.382 43.012 37.258 77.596 82.955 77.596z" fill="#B73001" p-id="8250"></path></svg>