<?xml version="1.0" standalone="no"?><!DOCTYPE svg PUBLIC "-//W3C//DTD SVG 1.1//EN" "http://www.w3.org/Graphics/SVG/1.1/DTD/svg11.dtd"><svg t="1754362708485" class="icon" viewBox="0 0 1024 1024" version="1.1" xmlns="http://www.w3.org/2000/svg" p-id="4703" xmlns:xlink="http://www.w3.org/1999/xlink" width="200" height="200"><path d="M512 0c282.331429 0 512 229.668571 512 512s-229.668571 512-512 512S0 794.331429 0 512 229.668571 0 512 0z m119.186286 585.728h-238.372572A173.714286 173.714286 0 0 0 219.428571 759.332571v79.762286A437.211429 437.211429 0 0 0 512 950.857143c112.420571 0 214.966857-42.276571 292.571429-111.762286v-79.762286a173.714286 173.714286 0 0 0-173.385143-173.604571zM512 201.142857a164.571429 164.571429 0 1 0 0 329.142857 164.571429 164.571429 0 0 0 0-329.142857z" fill="#333333" p-id="4704"></path></svg>