<svg width="300" height="300" viewBox="0 0 300 300" fill="none" xmlns="http://www.w3.org/2000/svg">
<rect x="38" y="85" width="56" height="25" rx="12.5" fill="white"/>
<rect x="230" y="137" width="56" height="25" rx="12.5" fill="white"/>
<rect x="106" y="59" width="181" height="25" rx="12.5" transform="rotate(90 106 59)" fill="white"/>
<rect x="181" y="84" width="100" height="25" rx="12.5" transform="rotate(-180 181 84)" fill="white"/>
<rect x="181" y="240" width="100" height="25" rx="12.5" transform="rotate(-180 181 240)" fill="white"/>
<rect x="38" y="190" width="56" height="25" rx="12.5" fill="white"/>
<mask id="path-7-inside-1_99_10" fill="white">
<path d="M162.5 240C186.502 240 209.521 230.465 226.493 213.493C243.465 196.521 253 173.502 253 149.5C253 125.498 243.465 102.479 226.493 85.5068C209.521 68.5348 186.502 59 162.5 59L162.5 83.9893C179.875 83.9893 196.537 90.8913 208.823 103.177C221.109 115.463 228.011 132.125 228.011 149.5C228.011 166.875 221.109 183.537 208.823 195.823C196.537 208.109 179.875 215.011 162.5 215.011L162.5 240Z"/>
</mask>
<path d="M162.5 240C186.502 240 209.521 230.465 226.493 213.493C243.465 196.521 253 173.502 253 149.5C253 125.498 243.465 102.479 226.493 85.5068C209.521 68.5348 186.502 59 162.5 59L162.5 83.9893C179.875 83.9893 196.537 90.8913 208.823 103.177C221.109 115.463 228.011 132.125 228.011 149.5C228.011 166.875 221.109 183.537 208.823 195.823C196.537 208.109 179.875 215.011 162.5 215.011L162.5 240Z" stroke="white" stroke-width="50" mask="url(#path-7-inside-1_99_10)"/>
</svg>
