<svg width="300" height="300" viewBox="0 0 300 300" fill="none" xmlns="http://www.w3.org/2000/svg">
<circle cx="150" cy="150" r="131" fill="#D5D5D5" fill-opacity="0.3"/>
<path d="M155.237 214C166.942 214 178.421 210.766 188.417 204.652C198.413 198.539 206.539 189.781 211.905 179.34C217.271 168.899 219.67 157.176 218.839 145.457C218.008 133.738 213.98 122.475 207.194 112.901C200.409 103.328 191.129 95.8137 180.372 91.1824C169.615 86.5511 157.795 84.9813 146.207 86.645C134.62 88.3086 123.712 93.1416 114.68 100.614C105.648 108.087 98.839 117.911 95 129.01" stroke="white" stroke-width="25" stroke-linecap="round"/>
<path d="M106.036 184.413C100.872 192.985 88.3646 192.751 83.5238 183.992L66.4119 153.031C61.5711 144.272 68.0271 133.558 78.0328 133.745L113.402 134.406C123.407 134.593 129.458 145.542 124.294 154.113L106.036 184.413Z" stroke="white" stroke-width="23"/>
</svg>
