<svg width="300" height="300" viewBox="0 0 300 300" fill="none" xmlns="http://www.w3.org/2000/svg">
<rect x="24" y="141" width="74" height="25" rx="12.5" fill="white"/>
<rect x="206" y="141" width="70" height="25" rx="12.5" fill="white"/>
<rect x="220" y="84" width="140" height="25" rx="12.5" transform="rotate(90 220 84)" fill="white"/>
<path d="M189.5 137.546C202.167 144.859 202.167 163.141 189.5 170.454L123.5 208.56C110.833 215.873 95 206.731 95 192.105L95 115.895C95 101.269 110.833 92.1273 123.5 99.4404L189.5 137.546Z" stroke="white" stroke-width="25"/>
<path d="M133 69.9999L148 50.9999" stroke="white" stroke-width="11" stroke-linecap="round"/>
<path d="M153.705 37.3035C156.395 36.416 159.129 38.5274 158.951 41.3538L157.659 61.831C157.457 65.0313 153.761 66.705 151.222 64.7452L133.03 50.6979C130.492 48.7382 131.176 44.7383 134.221 43.7334L153.705 37.3035Z" fill="white"/>
<path d="M167.995 89.9767L182.995 70.9767" stroke="white" stroke-width="11" stroke-linecap="round"/>
<path d="M188.7 57.2802C191.389 56.3927 194.124 58.5042 193.946 61.3305L192.654 81.8078C192.452 85.008 188.755 86.6817 186.217 84.722L168.024 70.6747C165.486 68.7149 166.171 64.715 169.216 63.7101L188.7 57.2802Z" fill="white"/>
</svg>
