<svg width="300" height="300" viewBox="0 0 300 300" fill="none" xmlns="http://www.w3.org/2000/svg">
<rect x="19" y="138" width="61" height="25" rx="12.5" fill="white"/>
<rect x="236" y="138" width="45" height="25" rx="12.5" fill="white"/>
<path d="M189.194 148.818C189.962 149.419 189.962 150.581 189.194 151.182L81.9238 235.049C81.5719 235.324 81.3293 235.375 81.165 235.389C80.948 235.407 80.654 235.367 80.3428 235.215C80.0316 235.063 79.8185 234.856 79.6992 234.674C79.609 234.536 79.5001 234.313 79.5 233.867L79.5 66.1328C79.5001 65.6866 79.609 65.4641 79.6992 65.3262C79.8185 65.144 80.0316 64.9369 80.3428 64.7852C80.654 64.6334 80.948 64.5931 81.165 64.6113C81.3293 64.6251 81.5719 64.6761 81.9238 64.9512L189.194 148.818Z" stroke="white" stroke-width="25" stroke-linejoin="round"/>
<circle cx="217" cy="150" r="24" stroke="white" stroke-width="20"/>
</svg>
