<svg width="300" height="300" viewBox="0 0 300 300" fill="none" xmlns="http://www.w3.org/2000/svg">
<circle cx="150" cy="150" r="131" fill="#D5D5D5" fill-opacity="0.3"/>
<path d="M148.763 214C137.058 214 125.579 210.766 115.583 204.652C105.587 198.539 97.4614 189.781 92.0952 179.34C86.7291 168.899 84.33 157.176 85.1609 145.457C85.9917 133.738 90.0205 122.475 96.8057 112.901C103.591 103.328 112.871 95.8137 123.628 91.1824C134.385 86.5511 146.205 84.9813 157.793 86.645C169.38 88.3086 180.288 93.1416 189.32 100.614C198.352 108.087 205.161 117.911 209 129.01" stroke="white" stroke-width="25" stroke-linecap="round"/>
<path d="M197.964 184.413C203.128 192.985 215.635 192.751 220.476 183.992L237.588 153.031C242.429 144.272 235.973 133.558 225.967 133.745L190.598 134.406C180.593 134.593 174.542 145.542 179.706 154.113L197.964 184.413Z" stroke="white" stroke-width="23"/>
</svg>
