<svg width="300" height="300" viewBox="0 0 300 300" fill="none" xmlns="http://www.w3.org/2000/svg">
<g clip-path="url(#clip0_57_69)">
<path d="M169.826 260.213C190.027 260.213 209.838 254.63 227.089 244.074C244.339 233.518 258.363 218.398 267.624 200.371C276.885 182.343 281.025 162.103 279.592 141.87C278.158 121.636 271.205 102.189 259.495 85.66C247.785 69.1308 231.77 56.1573 213.205 48.161C194.639 40.1647 174.24 37.4543 154.243 40.3268C134.245 43.1993 115.421 51.5438 99.8331 64.4459C84.245 77.348 72.4945 94.3098 65.8691 113.473" stroke="white" stroke-width="35" stroke-linecap="round"/>
<path d="M108.781 212.605C105.865 222.178 93.6797 225.005 86.8471 217.693L22.876 149.236C16.0434 141.924 19.6883 129.957 29.4368 127.696L120.708 106.524C130.457 104.263 138.998 113.403 136.082 122.976L108.781 212.605Z" stroke="white" stroke-width="34"/>
</g>
<defs>
<clipPath id="clip0_57_69">
<rect width="300" height="300" fill="white"/>
</clipPath>
</defs>
</svg>
