<svg width="300" height="300" viewBox="0 0 300 300" fill="none" xmlns="http://www.w3.org/2000/svg">
<path d="M155.237 214C166.942 214 178.421 210.766 188.417 204.652C198.413 198.539 206.539 189.781 211.905 179.34C217.271 168.899 219.67 157.176 218.839 145.457C218.008 133.738 213.98 122.475 207.194 112.901C200.409 103.328 191.129 95.8137 180.372 91.1824C169.615 86.5511 157.795 84.9813 146.207 86.645C134.62 88.3086 123.712 93.1417 114.68 100.614C105.648 108.087 98.839 117.911 95 129.01" stroke="white" stroke-width="25" stroke-linecap="round"/>
<path d="M118.764 182.397C115.848 191.97 103.662 194.796 96.8297 187.485L72.6771 161.638C65.8444 154.326 69.4893 142.36 79.2379 140.098L113.698 132.105C123.447 129.844 131.987 138.983 129.071 148.557L118.764 182.397Z" stroke="white" stroke-width="20"/>
</svg>
