<svg width="300" height="300" viewBox="0 0 300 300" fill="none" xmlns="http://www.w3.org/2000/svg">
<rect width="300" height="300" fill="white"/>
<circle cx="150" cy="150" r="131" fill="#D5D5D5" fill-opacity="0.3"/>
<path d="M68 175H230" stroke="black" stroke-width="25" stroke-linecap="round"/>
<path d="M150 184L150 205" stroke="black" stroke-width="31" stroke-linecap="round"/>
<path d="M81 80L112 139" stroke="black" stroke-width="20" stroke-linecap="round"/>
<path d="M143 80L112 139" stroke="black" stroke-width="20" stroke-linecap="round"/>
<path d="M173.697 110.973C171.289 109.652 168.581 108.972 165.835 109.001C163.088 109.029 160.395 109.764 158.015 111.135C155.635 112.506 153.648 114.466 152.245 116.827C150.842 119.188 150.07 121.871 150.005 124.617C149.939 127.363 150.581 130.079 151.869 132.505C153.158 134.931 155.049 136.984 157.361 138.467C159.672 139.95 162.327 140.813 165.069 140.973C167.811 141.133 170.548 140.584 173.016 139.38" stroke="black" stroke-width="16" stroke-linecap="round"/>
<path d="M215.697 110.973C213.289 109.652 210.581 108.972 207.835 109.001C205.088 109.029 202.395 109.764 200.015 111.135C197.635 112.506 195.648 114.466 194.245 116.827C192.842 119.188 192.07 121.871 192.005 124.617C191.939 127.363 192.581 130.079 193.869 132.505C195.158 134.931 197.049 136.984 199.361 138.467C201.672 139.95 204.327 140.813 207.069 140.973C209.811 141.133 212.548 140.584 215.016 139.38" stroke="black" stroke-width="16" stroke-linecap="round"/>
</svg>
